<?xml version="1.0" encoding="UTF-8" standalone="no"?>
<!-- Created with Inkscape (http://www.inkscape.org/) -->

<svg
   xmlns:dc="http://purl.org/dc/elements/1.1/"
   xmlns:cc="http://creativecommons.org/ns#"
   xmlns:rdf="http://www.w3.org/1999/02/22-rdf-syntax-ns#"
   xmlns:svg="http://www.w3.org/2000/svg"
   xmlns="http://www.w3.org/2000/svg"
   version="1.1"
   width="230.30949"
   height="136.95525"
   id="svg3017"
   xml:space="preserve"><metadata
     id="metadata3023"><rdf:RDF><cc:Work
         rdf:about=""><dc:format>image/svg+xml</dc:format><dc:type
           rdf:resource="http://purl.org/dc/dcmitype/StillImage" /><dc:title></dc:title></cc:Work></rdf:RDF></metadata><defs
     id="defs3021"><clipPath
       id="clipPath3033"><path
         d="m 0,841.89 595.276,0 L 595.276,0 0,0 0,841.89 z"
         id="path3035" /></clipPath><clipPath
       id="clipPath3077"><path
         d="m 212.225,457.347 184.999,0 0,111 -184.999,0 0,-111 z"
         id="path3079" /></clipPath></defs><g
     transform="matrix(1.25,0,0,-1.25,783.21555,645.03038)"
     id="g3025"><g
       transform="translate(-839.30755,-51.649695)"
       id="g3209"><g
         transform="translate(361.9525,472.416)"
         id="g3069"><path
           d="M 0,0 -4.166,-4.936 -8.321,0 l -2.235,0 5.466,-6.547 0,-6.805 1.847,-0.691 0,7.515 L 2.221,0 0,0 z"
           id="path3071"
           style="fill:#393536;fill-opacity:1;fill-rule:nonzero;stroke:none" /></g><g
         id="g3073"><g
           clip-path="url(#clipPath3077)"
           id="g3075"><g
             transform="translate(321.03551,458.7847)"
             id="g3081"><path
               d="m 0,0 -4.634,6.674 c 1.573,0.629 2.359,1.743 2.359,3.341 0,0.472 -0.082,0.924 -0.246,1.356 -0.163,0.433 -0.432,0.816 -0.806,1.15 -0.373,0.334 -0.861,0.603 -1.464,0.806 -0.602,0.203 -1.336,0.304 -2.201,0.304 l -3.753,0 0,-13.334 1.847,-0.682 0,6.568 2.535,0 L -2.165,0 0,0 z m -4.201,9.917 c 0,-0.668 -0.243,-1.199 -0.727,-1.592 -0.485,-0.393 -1.231,-0.59 -2.241,-0.59 l -1.729,0 0,4.344 1.69,0 c 1.049,0 1.811,-0.203 2.29,-0.609 0.478,-0.406 0.717,-0.924 0.717,-1.553"
               id="path3083"
               style="fill:#393536;fill-opacity:1;fill-rule:nonzero;stroke:none" /></g><g
             transform="translate(257.2438,458.3255)"
             id="g3085"><path
               d="m 0,0 0,14.385 -1.848,-0.452 0,-7.35 C -1.848,5.731 -1.969,5.005 -2.211,4.402 -2.454,3.8 -2.771,3.311 -3.164,2.938 -3.557,2.565 -3.999,2.293 -4.491,2.122 -4.982,1.952 -5.477,1.867 -5.974,1.867 -6.498,1.867 -6.996,1.959 -7.468,2.142 -7.94,2.326 -8.353,2.604 -8.706,2.978 -9.06,3.351 -9.338,3.826 -9.541,4.402 -9.744,4.979 -9.846,5.66 -9.846,6.445 l 0,7.488 -1.847,0.452 0,-7.979 c 0,-1.034 0.151,-1.939 0.452,-2.711 0.301,-0.774 0.711,-1.419 1.228,-1.936 0.518,-0.518 1.124,-0.905 1.818,-1.16 0.694,-0.255 1.435,-0.383 2.221,-0.383 0.366,0 0.743,0.04 1.13,0.118 0.386,0.079 0.762,0.197 1.13,0.354 0.367,0.157 0.714,0.353 1.041,0.589 0.328,0.236 0.616,0.518 0.865,0.845 l 0,-1.552 L 0,0 z"
               id="path3087"
               style="fill:#393536;fill-opacity:1;fill-rule:nonzero;stroke:none" /></g><g
             transform="translate(274.1933,458.1098)"
             id="g3089"><path
               d="m 0,0 0,14.268 -1.842,0 0,-10.388 -9.232,10.35 -1.43,0.705 0,-14.268 1.862,0 0,10.426 L -1.352,0.706 0,0 z"
               id="path3091"
               style="fill:#393536;fill-opacity:1;fill-rule:nonzero;stroke:none" /></g><g
             transform="translate(281.0789,458.77769)"
             id="g3093"><path
               d="M 0,0 0,14.11 -1.847,13.422 -1.847,0 0,0 z"
               id="path3095"
               style="fill:#393536;fill-opacity:1;fill-rule:nonzero;stroke:none" /></g><g
             transform="translate(294.3261,472.4503)"
             id="g3097"><path
               d="M 0,0 -4.252,-10.214 -8.502,0 -10.459,0 -4.92,-13.456 -3.977,-14.242 1.937,0 0,0 z"
               id="path3099"
               style="fill:#393536;fill-opacity:1;fill-rule:nonzero;stroke:none" /></g><g
             transform="translate(306.95441,458.77769)"
             id="g3101"><path
               d="m 0,0 -0.531,1.553 -5.817,0 0,4.52 5.444,0 0,1.552 -5.444,0 0,4.461 5.562,0 0.688,1.552 -8.097,0 L -8.195,0 0,0 z"
               id="path3103"
               style="fill:#393536;fill-opacity:1;fill-rule:nonzero;stroke:none" /></g><g
             transform="translate(331.3477,462.70821)"
             id="g3105"><path
               d="m 0,0 c 0,0.773 -0.161,1.388 -0.482,1.847 -0.32,0.459 -0.727,0.828 -1.218,1.11 -0.491,0.282 -1.025,0.508 -1.602,0.679 -0.577,0.17 -1.11,0.353 -1.601,0.55 -0.491,0.196 -0.901,0.439 -1.229,0.726 -0.327,0.289 -0.491,0.695 -0.491,1.219 0,0.301 0.059,0.58 0.177,0.835 0.118,0.256 0.282,0.479 0.491,0.669 0.21,0.189 0.455,0.337 0.737,0.442 0.282,0.104 0.586,0.157 0.914,0.157 0.432,0 0.849,-0.078 1.248,-0.236 0.399,-0.157 0.887,-0.393 1.464,-0.707 l 0.708,1.552 C -2.037,9.538 -3.21,9.885 -4.402,9.885 -4.978,9.885 -5.516,9.787 -6.013,9.59 -6.511,9.393 -6.95,9.125 -7.331,8.784 -7.71,8.443 -8.008,8.04 -8.224,7.576 -8.441,7.111 -8.549,6.616 -8.549,6.092 c 0,-0.576 0.095,-1.061 0.285,-1.455 0.191,-0.393 0.439,-0.723 0.747,-0.992 0.308,-0.268 0.659,-0.488 1.051,-0.658 0.394,-0.171 0.796,-0.328 1.209,-0.472 0.413,-0.144 0.819,-0.285 1.218,-0.422 0.4,-0.138 0.754,-0.302 1.062,-0.491 0.308,-0.191 0.556,-0.427 0.747,-0.708 0.189,-0.281 0.285,-0.632 0.285,-1.051 0,-0.76 -0.256,-1.34 -0.767,-1.74 -0.511,-0.399 -1.173,-0.599 -1.985,-0.599 -0.484,0 -0.973,0.131 -1.464,0.393 -0.491,0.262 -1.032,0.59 -1.621,0.983 L -8.47,-2.752 c 0.707,-0.458 1.386,-0.805 2.034,-1.041 0.649,-0.236 1.3,-0.354 1.955,-0.354 0.616,0 1.196,0.089 1.74,0.265 0.543,0.178 1.018,0.439 1.424,0.786 0.407,0.348 0.727,0.78 0.963,1.297 C -0.118,-1.281 0,-0.682 0,0"
               id="path3107"
               style="fill:#393536;fill-opacity:1;fill-rule:nonzero;stroke:none" /></g><g
             transform="translate(336.7534,458.77769)"
             id="g3109"><path
               d="M 0,0 0,14.11 -1.847,13.422 -1.847,0 0,0 z"
               id="path3111"
               style="fill:#393536;fill-opacity:1;fill-rule:nonzero;stroke:none" /></g><g
             transform="translate(351.2379,472.416)"
             id="g3113"><path
               d="m 0,0 -11.614,0 -0.57,-1.552 5.109,0 0,-12.106 1.848,0 0,12.106 4.676,0 L 0,0 z"
               id="path3115"
               style="fill:#393536;fill-opacity:1;fill-rule:nonzero;stroke:none" /></g><g
             transform="translate(212.73511,567.674)"
             id="g3117"><path
               d="m 0,0 0,-56.681 20.117,0 42.586,0 0.201,0 0,40.751 L 40.292,-36.291 0,0 z"
               id="path3119"
               style="fill:#db1f26;fill-opacity:1;fill-rule:evenodd;stroke:none" /></g><g
             transform="translate(352.3737,566.8681)"
             id="g3121"><path
               d="m 0,0 44.609,0 0,-33.449 -0.003,0 c 0,-0.079 0.003,-0.157 0.003,-0.236 0,-12.599 -9.989,-22.816 -22.305,-22.816 C 9.988,-56.501 0,-46.284 0,-33.685 l 0.003,0.236 -0.003,0 L 0,0 z"
               id="path3123"
               style="fill:#db1f26;fill-opacity:1;fill-rule:evenodd;stroke:none" /></g><g
             transform="translate(352.3737,566.8681)"
             id="g3125"><path
               d="m 0,0 22.308,0 0,-56.501 -0.004,0 c -12.316,0 -22.305,10.217 -22.305,22.816 l 0.004,0.236 -0.003,0 L 0,0 z"
               id="path3127"
               style="fill:#f1511b;fill-opacity:1;fill-rule:evenodd;stroke:none" /></g><g
             transform="translate(317.2439,532.9348)"
             id="g3129"><path
               d="m 0,0 24.377,-21.941 -48.72,-0.001 0,55.866 28.907,0 0.924,-0.037 C 14.349,33.327 21.365,26.145 21.365,16.962 21.365,7.779 13.769,0 4.403,0 L 4.228,0.002 6.367,0 0,0 z"
               id="path3131"
               style="fill:#f1511b;fill-opacity:1;fill-rule:evenodd;stroke:none" /></g><g
             transform="translate(237.5665,494.395)"
             id="g3133"><path
               d="M 0,0 -4.166,-4.936 -8.321,0 l -2.235,0 5.466,-6.547 0,-6.805 1.847,-0.691 0,7.515 L 2.221,0 0,0 z"
               id="path3135"
               style="fill:#393536;fill-opacity:1;fill-rule:nonzero;stroke:none" /></g><g
             transform="translate(251.8744,480.7343)"
             id="g3137"><path
               d="m 0,0 -7.214,6.858 6.4,6.794 -2.305,0 -5.509,-5.792 0,6.25 -1.868,-0.682 0,-13.428 1.868,0 0,5.895 L -2.435,0 0,0 z"
               id="path3139"
               style="fill:#393536;fill-opacity:1;fill-rule:nonzero;stroke:none" /></g><g
             transform="translate(267.2881,487.5331)"
             id="g3141"><path
               d="m 0,0 c 0,0.983 -0.19,1.9 -0.57,2.752 -0.38,0.851 -0.897,1.594 -1.553,2.23 -0.655,0.635 -1.427,1.133 -2.319,1.493 -0.89,0.361 -1.847,0.541 -2.869,0.541 -1.022,0 -1.975,-0.18 -2.859,-0.541 -0.884,-0.36 -1.654,-0.858 -2.309,-1.493 -0.655,-0.636 -1.17,-1.379 -1.543,-2.23 -0.373,-0.852 -0.56,-1.769 -0.56,-2.752 0,-0.982 0.187,-1.899 0.56,-2.752 0.373,-0.851 0.888,-1.595 1.543,-2.23 0.655,-0.635 1.425,-1.133 2.309,-1.493 0.884,-0.36 1.837,-0.541 2.859,-0.541 1.022,0 1.979,0.181 2.869,0.541 0.892,0.36 1.664,0.858 2.319,1.493 0.656,0.635 1.173,1.379 1.553,2.23 C -0.19,-1.899 0,-0.982 0,0 m -1.926,0 c 0,-0.76 -0.138,-1.467 -0.413,-2.122 -0.275,-0.655 -0.652,-1.222 -1.13,-1.7 -0.478,-0.478 -1.044,-0.855 -1.7,-1.13 -0.655,-0.275 -1.355,-0.413 -2.103,-0.413 -0.746,0 -1.447,0.138 -2.102,0.413 -0.655,0.275 -1.225,0.652 -1.71,1.13 -0.485,0.478 -0.868,1.045 -1.149,1.7 -0.282,0.655 -0.423,1.362 -0.423,2.122 0,0.76 0.141,1.464 0.423,2.113 0.281,0.648 0.664,1.215 1.149,1.7 0.485,0.484 1.055,0.864 1.71,1.139 0.655,0.275 1.356,0.413 2.102,0.413 0.748,0 1.448,-0.138 2.103,-0.413 0.656,-0.275 1.222,-0.655 1.7,-1.139 0.478,-0.485 0.855,-1.052 1.13,-1.7 C -2.064,1.464 -1.926,0.76 -1.926,0"
               id="path3143"
               style="fill:#393536;fill-opacity:1;fill-rule:nonzero;stroke:none" /></g><g
             transform="translate(278.5105,480.73399)"
             id="g3145"><path
               d="m 0,0 -0.688,1.553 -5.895,0 0,12.085 -1.848,0 L -8.431,0 0,0 z"
               id="path3147"
               style="fill:#393536;fill-opacity:1;fill-rule:nonzero;stroke:none" /></g><g
             transform="translate(225.4771,480.3479)"
             id="g3149"><path
               d="m 0,0 0,14.498 -1.277,-0.65 -5.09,-6.859 -5.07,6.859 -1.297,0.652 0,-14.502 1.848,0.669 0,9.506 0.039,0 4.48,-6.132 4.5,6.171 0.02,0 0,-9.544 L 0,0 z"
               id="path3151"
               style="fill:#393536;fill-opacity:1;fill-rule:nonzero;stroke:none" /></g><g
             transform="translate(339.1342,487.5331)"
             id="g3153"><path
               d="m 0,0 c 0,0.983 -0.19,1.9 -0.57,2.752 -0.38,0.851 -0.898,1.594 -1.553,2.23 -0.655,0.635 -1.427,1.133 -2.318,1.493 -0.891,0.361 -1.848,0.541 -2.87,0.541 -1.021,0 -1.974,-0.18 -2.859,-0.541 -0.884,-0.36 -1.654,-0.858 -2.309,-1.493 -0.655,-0.636 -1.169,-1.379 -1.543,-2.23 C -14.395,1.9 -14.581,0.983 -14.581,0 c 0,-0.982 0.186,-1.899 0.559,-2.752 0.374,-0.851 0.888,-1.595 1.543,-2.23 0.655,-0.635 1.425,-1.133 2.309,-1.493 0.885,-0.36 1.838,-0.541 2.859,-0.541 1.022,0 1.979,0.181 2.87,0.541 0.891,0.36 1.663,0.858 2.318,1.493 0.655,0.635 1.173,1.379 1.553,2.23 C -0.19,-1.899 0,-0.982 0,0 m -1.926,0 c 0,-0.76 -0.138,-1.467 -0.412,-2.122 -0.276,-0.655 -0.653,-1.222 -1.131,-1.7 -0.478,-0.478 -1.045,-0.855 -1.699,-1.13 -0.655,-0.275 -1.357,-0.413 -2.103,-0.413 -0.747,0 -1.448,0.138 -2.103,0.413 -0.655,0.275 -1.225,0.652 -1.709,1.13 -0.485,0.478 -0.869,1.045 -1.151,1.7 -0.281,0.655 -0.422,1.362 -0.422,2.122 0,0.76 0.141,1.464 0.422,2.113 0.282,0.648 0.666,1.215 1.151,1.7 0.484,0.484 1.054,0.864 1.709,1.139 0.655,0.275 1.356,0.413 2.103,0.413 0.746,0 1.448,-0.138 2.103,-0.413 0.654,-0.275 1.221,-0.655 1.699,-1.139 0.478,-0.485 0.855,-1.052 1.131,-1.7 C -2.064,1.464 -1.926,0.76 -1.926,0"
               id="path3155"
               style="fill:#393536;fill-opacity:1;fill-rule:nonzero;stroke:none" /></g><g
             transform="translate(354.9991,480.36011)"
             id="g3157"><path
               d="m 0,0 0,14.499 -1.277,-0.664 -5.09,-6.858 -5.07,6.858 -1.297,0.606 0,-14.441 1.847,0.668 0,9.493 0.039,0 4.481,-6.132 4.501,6.171 0.019,0 0,-9.532 L 0,0 z"
               id="path3159"
               style="fill:#393536;fill-opacity:1;fill-rule:nonzero;stroke:none" /></g><g
             transform="translate(367.7043,480.73399)"
             id="g3161"><path
               d="m 0,0 -0.531,1.553 -5.816,0 0,4.52 5.443,0 0,1.552 -5.443,0 0,4.461 5.561,0 0.688,1.552 -8.097,0 L -8.195,0 0,0 z"
               id="path3163"
               style="fill:#393536;fill-opacity:1;fill-rule:nonzero;stroke:none" /></g><g
             transform="translate(381.8568,480.7408)"
             id="g3165"><path
               d="m 0,0 -4.634,6.675 c 1.573,0.628 2.358,1.742 2.358,3.34 0,0.472 -0.081,0.924 -0.245,1.356 -0.163,0.433 -0.432,0.816 -0.805,1.15 -0.373,0.334 -0.862,0.603 -1.465,0.806 -0.602,0.203 -1.336,0.304 -2.2,0.304 l -3.754,0 0,-13.333 1.847,-0.683 0,6.569 2.535,0 L -2.166,0 0,0 z m -4.201,9.917 c 0,-0.668 -0.242,-1.198 -0.727,-1.591 -0.485,-0.394 -1.232,-0.59 -2.24,-0.59 l -1.73,0 0,4.343 1.69,0 c 1.048,0 1.811,-0.203 2.29,-0.609 0.478,-0.407 0.717,-0.924 0.717,-1.553"
               id="path3167"
               style="fill:#393536;fill-opacity:1;fill-rule:nonzero;stroke:none" /></g><g
             transform="translate(385.4753,480.73399)"
             id="g3169"><path
               d="M 0,0 0,14.11 -1.848,13.422 -1.848,0 0,0 z"
               id="path3171"
               style="fill:#393536;fill-opacity:1;fill-rule:nonzero;stroke:none" /></g><g
             transform="translate(323.6635,480.71561)"
             id="g3173"><path
               d="m 0,0 -4.643,6.7 c 1.572,0.629 2.358,1.742 2.358,3.34 0,0.473 -0.082,0.924 -0.246,1.357 -0.163,0.432 -0.432,0.815 -0.805,1.15 -0.373,0.333 -0.862,0.602 -1.464,0.805 -0.603,0.203 -1.337,0.304 -2.202,0.304 l -3.753,0 0,-13.326 1.847,-0.691 0,6.57 2.535,0 L -2.163,0 0,0 z m -4.211,9.942 c 0,-0.668 -0.242,-1.198 -0.727,-1.591 -0.485,-0.394 -1.232,-0.59 -2.24,-0.59 l -1.73,0 0,4.343 1.691,0 c 1.047,0 1.81,-0.203 2.289,-0.609 0.478,-0.406 0.717,-0.924 0.717,-1.553"
               id="path3175"
               style="fill:#393536;fill-opacity:1;fill-rule:nonzero;stroke:none" /></g><g
             transform="translate(230.3793,510.99271)"
             id="g3177"><path
               d="m 0,0 2.473,0 42.586,0 0.2,0 0,40.751 L 0,0 z"
               id="path3179"
               style="fill:#f1511b;fill-opacity:1;fill-rule:evenodd;stroke:none" /></g><g
             transform="translate(212.73511,526.88029)"
             id="g3181"><path
               d="m 0,0 0,-15.888 17.647,0 L 0,0 z"
               id="path3183"
               style="fill:#f89c0e;fill-opacity:1;fill-rule:evenodd;stroke:none" /></g><g
             transform="translate(341.62131,510.9938)"
             id="g3185"><path
               d="m 0,0 -48.721,-0.001 0,43.873 L 0,0 z"
               id="path3187"
               style="fill:#db1f26;fill-opacity:1;fill-rule:evenodd;stroke:none" /></g><g
             transform="translate(292.9005,554.858)"
             id="g3189"><path
               d="M 0,0 0,12 13.323,12 0,0 z"
               id="path3191"
               style="fill:#f89c0e;fill-opacity:1;fill-rule:evenodd;stroke:none" /></g><g
             transform="translate(374.70979,566.8681)"
             id="g3193"><path
               d="m 0,0 22.272,0 0,-20.079 L 0,0 z"
               id="path3195"
               style="fill:#f89c0e;fill-opacity:1;fill-rule:evenodd;stroke:none" /></g><g
             transform="translate(293.12421,480.8465)"
             id="g3197"><path
               d="M 0,0 -6.505,13.95 -7.547,13.479 -13.792,0 l 1.988,0 2.036,4.38 5.759,0 2,-4.38 L 0,0 z m -4.736,5.952 -4.343,0 2.181,4.776 2.162,-4.776 z"
               id="path3199"
               style="fill:#393536;fill-opacity:1;fill-rule:nonzero;stroke:none" /></g><g
             transform="translate(396.7699,484.713)"
             id="g3201"><path
               d="m 0,0 c 0,0.772 -0.16,1.388 -0.481,1.847 -0.322,0.458 -0.728,0.828 -1.219,1.11 -0.491,0.282 -1.025,0.508 -1.602,0.678 -0.576,0.171 -1.11,0.354 -1.601,0.55 -0.492,0.197 -0.901,0.44 -1.229,0.727 -0.327,0.289 -0.491,0.695 -0.491,1.218 0,0.302 0.059,0.581 0.177,0.836 0.118,0.255 0.282,0.479 0.491,0.668 0.21,0.19 0.456,0.338 0.737,0.443 0.282,0.104 0.587,0.157 0.914,0.157 0.432,0 0.848,-0.078 1.248,-0.236 0.399,-0.157 0.888,-0.393 1.464,-0.707 l 0.708,1.552 C -2.037,9.538 -3.21,9.885 -4.402,9.885 -4.979,9.885 -5.515,9.786 -6.014,9.59 -6.511,9.393 -6.951,9.125 -7.33,8.784 -7.71,8.443 -8.008,8.04 -8.224,7.575 -8.44,7.11 -8.548,6.616 -8.548,6.092 c 0,-0.577 0.094,-1.061 0.284,-1.455 0.19,-0.393 0.439,-0.723 0.747,-0.992 0.308,-0.268 0.658,-0.488 1.051,-0.658 0.393,-0.171 0.796,-0.328 1.209,-0.472 0.413,-0.144 0.819,-0.285 1.218,-0.423 0.4,-0.137 0.754,-0.301 1.061,-0.491 0.309,-0.19 0.557,-0.426 0.748,-0.707 0.189,-0.281 0.284,-0.632 0.284,-1.051 0,-0.76 -0.255,-1.341 -0.766,-1.74 -0.511,-0.399 -1.172,-0.599 -1.985,-0.599 -0.484,0 -0.973,0.131 -1.464,0.393 -0.492,0.262 -1.031,0.59 -1.621,0.983 L -8.47,-2.752 c 0.708,-0.458 1.385,-0.805 2.034,-1.041 0.648,-0.236 1.3,-0.354 1.955,-0.354 0.616,0 1.196,0.088 1.739,0.265 0.544,0.178 1.019,0.439 1.426,0.786 0.405,0.348 0.726,0.78 0.962,1.297 C -0.118,-1.281 0,-0.682 0,0"
               id="path3203"
               style="fill:#393536;fill-opacity:1;fill-rule:nonzero;stroke:none" /></g><g
             transform="translate(302.5406,484.7946)"
             id="g3205"><path
               d="m 0,0 c 0,0.772 -0.16,1.388 -0.481,1.847 -0.322,0.458 -0.728,0.828 -1.219,1.11 -0.491,0.282 -1.025,0.508 -1.602,0.678 -0.576,0.171 -1.11,0.354 -1.601,0.55 -0.492,0.197 -0.901,0.44 -1.229,0.727 -0.327,0.289 -0.491,0.695 -0.491,1.218 0,0.302 0.059,0.581 0.177,0.836 0.118,0.255 0.282,0.479 0.491,0.668 0.21,0.19 0.456,0.338 0.737,0.443 0.282,0.104 0.587,0.157 0.914,0.157 0.432,0 0.848,-0.078 1.248,-0.236 0.399,-0.157 0.887,-0.393 1.464,-0.707 l 0.708,1.552 C -2.037,9.538 -3.21,9.885 -4.402,9.885 -4.979,9.885 -5.515,9.786 -6.014,9.59 -6.512,9.393 -6.951,9.125 -7.33,8.784 -7.71,8.443 -8.008,8.04 -8.224,7.575 -8.44,7.11 -8.548,6.616 -8.548,6.092 c 0,-0.577 0.094,-1.061 0.284,-1.455 0.19,-0.393 0.439,-0.723 0.747,-0.992 0.308,-0.268 0.658,-0.488 1.051,-0.658 0.393,-0.17 0.796,-0.328 1.209,-0.472 0.413,-0.144 0.818,-0.285 1.218,-0.423 0.4,-0.137 0.754,-0.301 1.061,-0.491 0.309,-0.19 0.557,-0.426 0.748,-0.707 0.189,-0.281 0.284,-0.632 0.284,-1.051 0,-0.76 -0.255,-1.34 -0.766,-1.74 -0.511,-0.399 -1.172,-0.599 -1.985,-0.599 -0.484,0 -0.973,0.131 -1.464,0.393 -0.492,0.262 -1.031,0.59 -1.621,0.983 L -8.47,-2.752 c 0.708,-0.458 1.385,-0.805 2.034,-1.041 0.648,-0.236 1.3,-0.354 1.955,-0.354 0.616,0 1.196,0.088 1.739,0.265 0.544,0.178 1.019,0.439 1.426,0.786 0.405,0.348 0.726,0.78 0.962,1.297 C -0.118,-1.281 0,-0.682 0,0"
               id="path3207"
               style="fill:#393536;fill-opacity:1;fill-rule:nonzero;stroke:none" /></g></g></g></g></g></svg>